<?xml version="1.0" encoding="UTF-8" standalone="no"?>
<!-- Created with Inkscape (http://www.inkscape.org/) -->

<svg
   version="1.1"
   id="svg1"
   width="1080"
   height="1080"
   viewBox="0 0 1080 1080"
   sodipodi:docname="TAPPY - SOMENTE A LOGO - AZUL MARINHO.svg"
   inkscape:version="1.3.2 (091e20e, 2023-11-25, custom)"
   inkscape:export-filename="..\TappyOne\NOVA\ICONE TAPPYONE - BRANCO.png"
   inkscape:export-xdpi="96"
   inkscape:export-ydpi="96"
   xmlns:inkscape="http://www.inkscape.org/namespaces/inkscape"
   xmlns:sodipodi="http://sodipodi.sourceforge.net/DTD/sodipodi-0.dtd"
   xmlns="http://www.w3.org/2000/svg"
   xmlns:svg="http://www.w3.org/2000/svg">
  <defs
     id="defs1" />
  <sodipodi:namedview
     id="namedview1"
     pagecolor="#ffffff"
     bordercolor="#000000"
     borderopacity="0.25"
     inkscape:showpageshadow="2"
     inkscape:pageopacity="0.0"
     inkscape:pagecheckerboard="0"
     inkscape:deskcolor="#d1d1d1"
     inkscape:zoom="0.50864548"
     inkscape:cx="295.88388"
     inkscape:cy="498.38249"
     inkscape:window-width="2560"
     inkscape:window-height="1017"
     inkscape:window-x="-8"
     inkscape:window-y="-8"
     inkscape:window-maximized="1"
     inkscape:current-layer="g1"
     showgrid="false">
    <inkscape:page
       x="0"
       y="0"
       width="1080"
       height="1080"
       id="page2"
       margin="0"
       bleed="0" />
  </sodipodi:namedview>
  <g
     inkscape:groupmode="layer"
     inkscape:label="Image"
     id="g1">
    <g
       id="g3"
       transform="translate(-202.50853,-428.78687)"
       style="fill:#ffffff;fill-opacity:1">
      <path
         style="fill:#ffffff;fill-opacity:1;stroke-width:2.81451"
         d="m 618.05606,1344.101 c -21.6192,-24.7311 -43.48949,-55.9085 -59.30649,-80.3838 7.69986,-8.1077 19.31126,-18.5334 26.32053,-25.0112 49.46757,91.4768 116.67275,192.1046 213.536,203.4105 -85.24305,1.4892 -138.77807,-50.2314 -180.55004,-98.0155 z m 176.50752,63.7047 c -38.8089,-13.6286 -103.36187,-68.2114 -200.62439,-284.5694 11.59957,-12.2517 24.34131,-23.4313 43.13101,-45.1165 32.18623,95.5379 38.74629,117.8864 73.17127,193.5754 26.40576,58.0576 63.50697,113.9312 113.49445,118.938 11.47825,1.6106 26.63856,0.041 39.12327,-5.4752 20.63399,-9.1192 44.23269,-23.476 67.21394,-44.949 43.80044,-40.9264 87.35667,-100.5153 102.70197,-115.8211 -26.8674,39.4569 -72.86277,99.5845 -107.31976,132.4091 -26.40843,25.1576 -37.68472,36.4123 -66.13961,48.4962 -23.71502,10.0709 -45.86526,9.1448 -64.75215,2.5125 z M 427.77436,1224.0634 c 6.40643,-6.9371 15.62341,-16.8592 25.05176,-27.1829 48.4838,70.4158 104.19573,148.3382 162.88984,202.4138 -60.07665,-17.6948 -136.22214,-110.5083 -187.9416,-175.2309 z m 26.73908,-151.1414 c 2.9236,-2.4106 30.36881,-28.5841 42.24205,-40.0352 2.83488,19.9246 54.90246,147.2086 75.62737,183.0008 -8.98444,8.609 -18.93504,18.4213 -27.29454,26.2686 -31.04968,-47.7617 -80.30857,-148.1097 -90.57488,-169.2342 z m -107.01585,38.5796 c 10.56938,-9.6067 24.59602,-22.5785 33.45733,-31.0398 10.08309,16.6821 40.56505,72.6048 57.70251,94.7478 -8.10039,7.589 -16.24942,16.7476 -26.17431,27.9607 -20.9484,-28.8012 -44.7914,-63.3206 -64.98553,-91.6687 z m 724.27751,22.4898 c 12.2183,-16.9585 39.2374,-64.3873 57.266,-94.134 16.1015,3.2848 22.2022,4.8366 38.0465,8.5144 -20.5524,41.4684 -30.5349,62.1337 -50.3676,97.3688 -4.3479,-0.9501 -28.5527,-6.1625 -44.9449,-11.7492 z m -305.98163,-18.6869 80.46561,-86.2008 c 0,0 66.1468,15.0223 66.1468,16.0123 0,4.1709 -78.03946,89.6631 -78.03946,89.6631 z m -212.77365,-93.0939 c 14.69822,-15.1989 30.00484,-30.24455 47.15443,-47.29043 9.74624,26.72703 17.82902,51.17173 27.15445,76.80963 -14.61458,14.3849 -30.32354,28.8846 -43.95623,45.5743 -7.40037,-18.866 -21.96623,-55.1018 -30.35265,-75.0935 z m 420.02713,41.4458 c 20.15274,-24.4122 74.52855,-80.70499 128.12855,-152.85327 0,0 19.8812,4.51814 36.4501,9.165 -42.2174,69.27526 -77.7126,115.74307 -108.1851,158.28127 -16.8334,-4.1209 -40.44388,-10.4329 -56.39355,-14.593 z m -106.08536,-56.4409 c 9.13132,-12.35475 47.35804,-53.0741 55.56567,-61.82095 24.49358,6.0534 43.28161,10.64096 63.39944,15.49691 -1.48447,3.06114 -37.90468,47.15084 -52.89873,61.18324 -4.67321,-1.1569 -41.47166,-8.6317 -66.06638,-14.8592 z m 276.05811,8.5544 c 20.2553,-37.04439 44.7854,-82.54276 60.2853,-117.87178 15.6824,-35.74535 38.5017,-89.42765 42.0715,-113.20272 9.1492,44.83469 -11.9732,125.64901 -66.1647,238.664 -9.8071,-1.5874 -18.9561,-3.1953 -36.1921,-7.5895 z M 500.65398,885.54018 c 14.90771,-14.23442 28.90954,-27.29896 50.63826,-47.41168 11.38966,32.3672 25.70589,72.04835 38.35927,108.81266 -12.84743,13.83256 -33.75393,34.79987 -46.31895,48.24983 -9.08462,-20.60224 -28.94777,-77.60351 -42.67858,-109.65081 z M 249.07722,740.80122 c 11.01859,-19.40048 33.47769,-35.42051 61.54785,-44.07162 60.39656,-18.61397 139.52918,-18.95241 215.52183,-13.64569 62.80246,4.38559 75.12267,5.56175 104.1887,9.99516 6.88306,19.84785 11.9956,37.14897 18.13287,55.94566 -63.10052,-13.87024 -208.51305,-39.61993 -261.30979,-38.21597 -62.3269,1.65736 -129.52807,10.22181 -129.75581,91.31307 -0.20138,71.64822 43.87228,153.1851 64.50606,203.00587 C 256.27032,885.81346 220.66461,803.43341 249.07722,740.80122 Z m 694.25311,183.94845 c 0,0 13.56077,-14.06424 33.74482,-35.54587 69.25795,-73.70978 119.97805,-137.50292 142.02995,-178.63779 15.7319,-29.34553 21.8262,-52.6927 19.6644,-75.33313 -1.8716,-19.5998 -10.8778,-26.89806 -25.0149,-43.48892 -39.0874,-45.87201 -217.79357,-58.82379 -235.08962,-64.18803 75.93633,4.75251 154.49892,8.81386 225.44512,37.28564 43.5536,19.44827 62.7676,45.12599 60.3291,88.7839 -3.1405,56.23243 -44.7746,139.18718 -145.8911,265.77351 -7.3159,9.15881 -14.1036,18.01758 -14.1036,18.01758 z m 172.26057,-37.37028 c 33.7824,-50.74406 63.0934,-103.32539 81.9235,-160.8824 5.0338,-16.53028 7.165,-29.69757 8.801,-51.679 -0.983,-19.39173 -4.3728,-39.42941 -13.2126,-58.78235 19.5738,25.43367 23.3999,51.94226 24.3228,80.81318 0.072,24.20891 -5.1061,61.18186 -16.7095,94.30165 -9.6969,27.6783 -36.9268,83.53823 -50.6389,105.24 -10.6888,-2.79911 -17.9067,-4.09945 -34.4863,-9.01108 z M 793.98777,777.02361 c -1.62401,-6.11189 -13.89631,-41.34689 -21.06255,-62.85122 39.57856,4.90219 81.83206,13.47419 120.85732,20.01324 6.3861,21.96898 13.63608,45.31787 18.27265,65.62033 -25.58744,-5.13253 -78.12322,-15.34393 -118.06742,-22.78235 z M 680.03524,754.88039 c -4.23055,-12.11154 -12.88185,-38.65043 -19.42934,-58.71832 14.17424,1.1711 69.76541,11.04104 83.06507,13.02878 1.9555,6.57167 14.75049,46.29446 19.23278,62.34109 -22.88246,-4.9504 -57.50157,-12.03761 -82.86851,-16.65155 z M 382.70004,608.5774 c 63.37062,-14.71789 107.01446,-15.00498 137.55537,-14.91096 3.23093,11.71474 7.28625,23.45985 8.74849,32.66197 -74.61146,-2.06157 -227.46752,-6.89092 -286.38304,71.62472 24.85982,-53.63319 85.28257,-75.32051 140.07918,-89.37573 z m 174.86424,19.32732 c -2.51868,-9.95737 -6.55546,-24.1578 -10.19097,-35.46687 49.36962,-0.13105 142.08192,4.18908 198.70082,9.21112 4.22956,15.54932 11.07227,38.09204 15.17958,54.56579 C 738.52668,650.16524 655.5684,635.60765 557.56428,627.90472 Z M 367.57884,571.27918 c 47.16969,-33.30508 126.42074,-52.62991 254.55029,-65.96814 3.84235,12.4264 7.70524,27.03144 9.60282,33.92491 -86.52928,5.67659 -151.24753,6.9614 -264.15311,32.04323 z m 282.63576,-67.6852 c 10.15634,-2.06257 97.51236,-8.18935 112.54902,-8.06391 5.21862,14.96644 9.22511,30.51842 13.18072,44.07489 -29.17815,-2.66998 -84.65789,-1.48181 -113.74463,0.16846 -4.99273,-14.60564 -8.38681,-25.03792 -11.98511,-36.17952 z"
         id="path2"
         sodipodi:nodetypes="scccssccscsscssscccccccccccccccccccccsccccccccccccccccccsccccccccsssccsscscsssssssscccsccsscccccccccccccccccccccccccccccccc" />
    </g>
  </g>
</svg>
