<?xml version="1.0" encoding="UTF-8" standalone="no"?>
<svg
   width="400"
   zoomAndPan="magnify"
   viewBox="0 0 300 75.000003"
   height="100.00001"
   preserveAspectRatio="xMidYMid"
   version="1.0"
   id="svg25"
   sodipodi:docname="Logo TappyOne horizontal - azul.svg"
   inkscape:export-filename="NOVA\LOGO TAPPYONE - AZUL MARINHO.svg"
   inkscape:export-xdpi="96"
   inkscape:export-ydpi="96"
   xmlns:inkscape="http://www.inkscape.org/namespaces/inkscape"
   xmlns:sodipodi="http://sodipodi.sourceforge.net/DTD/sodipodi-0.dtd"
   xmlns="http://www.w3.org/2000/svg"
   xmlns:svg="http://www.w3.org/2000/svg">
  <sodipodi:namedview
     id="namedview25"
     pagecolor="#505050"
     bordercolor="#eeeeee"
     borderopacity="1"
     inkscape:showpageshadow="0"
     inkscape:pageopacity="0"
     inkscape:pagecheckerboard="0"
     inkscape:deskcolor="#505050">
    <inkscape:page
       x="0"
       y="0"
       width="300"
       height="75"
       id="page2"
       margin="0"
       bleed="0" />
  </sodipodi:namedview>
  <defs
     id="defs1" />
  <g
     id="g26"
     transform="matrix(1,0,0,0.99999636,25.417993,-0.4213268)"
     style="fill:#ffffff;fill-opacity:1">
    <path
       fill="#216eb9"
       d="m 17.027344,52.832031 c -0.886719,-1.015625 -1.785156,-2.292969 -2.429688,-3.292969 0.3125,-0.335937 0.789063,-0.761718 1.078125,-1.027343 2.027344,3.75 4.777344,7.871093 8.746094,8.335937 -3.492187,0.05859 -5.683594,-2.058594 -7.394531,-4.015625 z m 7.230468,2.609375 c -1.589843,-0.558594 -4.234374,-2.796875 -8.21875,-11.660156 0.472657,-0.5 0.996094,-0.960938 1.765626,-1.847656 1.320312,3.914062 1.585937,4.828125 3,7.929687 1.082031,2.378907 2.601562,4.667969 4.648437,4.875 0.46875,0.06641 1.089844,0 1.601563,-0.226562 0.847656,-0.371094 1.8125,-0.960938 2.753906,-1.839844 1.796875,-1.675781 3.582031,-4.117187 4.210937,-4.746094 -1.101562,1.617188 -2.988281,4.082031 -4.398437,5.425781 -1.082032,1.03125 -1.542969,1.492188 -2.710938,1.984376 -0.972656,0.414062 -1.878906,0.375 -2.652344,0.105468 z M 9.230469,47.914062 c 0.261719,-0.285156 0.640625,-0.691406 1.027343,-1.117187 1.984376,2.886719 4.265626,6.078125 6.671876,8.296875 C 14.46875,54.367188 11.347656,50.5625 9.230469,47.914062 Z m 1.09375,-6.195312 c 0.121093,-0.09766 1.246093,-1.171875 1.730469,-1.640625 0.117187,0.816406 2.25,6.03125 3.101562,7.5 -0.371094,0.351563 -0.777344,0.753906 -1.121094,1.074219 -1.269531,-1.957032 -3.289062,-6.066406 -3.710937,-6.933594 z M 5.941406,43.300781 C 6.375,42.90625 6.949219,42.375 7.3125,42.027344 c 0.410156,0.683594 1.660156,2.976562 2.363281,3.882812 -0.332031,0.3125 -0.664062,0.6875 -1.074219,1.144532 C 7.746094,45.875 6.769531,44.460938 5.941406,43.300781 Z m 29.675782,0.921875 c 0.5,-0.695312 1.605468,-2.640625 2.34375,-3.859375 0.660156,0.136719 0.910156,0.199219 1.558593,0.351563 -0.839843,1.699218 -1.25,2.542968 -2.0625,3.988281 -0.179687,-0.03906 -1.167969,-0.253906 -1.839843,-0.480469 z M 23.078125,43.457031 26.375,39.925781 c 0,0 2.710938,0.613281 2.710938,0.65625 0,0.167969 -3.199219,3.671875 -3.199219,3.671875 z m -8.71875,-3.816406 c 0.605469,-0.621094 1.230469,-1.238281 1.933594,-1.9375 0.398437,1.097656 0.730469,2.097656 1.113281,3.148437 -0.597656,0.589844 -1.242188,1.183594 -1.800781,1.867188 -0.304688,-0.773438 -0.902344,-2.257812 -1.246094,-3.078125 z m 17.210937,1.699219 c 0.824219,-1 3.054688,-3.304688 5.25,-6.261719 0,0 0.816407,0.183594 1.492188,0.375 -1.726562,2.839844 -3.183594,4.742187 -4.429688,6.484375 -0.691406,-0.167969 -1.660156,-0.425781 -2.3125,-0.597656 z m -4.347656,-2.3125 c 0.375,-0.503906 1.941406,-2.175782 2.277344,-2.53125 1.003906,0.246094 1.773438,0.433594 2.597656,0.632812 -0.05859,0.125 -1.550781,1.933594 -2.167968,2.507813 -0.191407,-0.04687 -1.699219,-0.355469 -2.707032,-0.609375 z m 11.3125,0.351562 c 0.828125,-1.519531 1.835938,-3.382812 2.46875,-4.832031 0.644532,-1.460937 1.578125,-3.664063 1.726563,-4.636719 0.371093,1.835938 -0.492188,5.148438 -2.710938,9.777344 -0.402343,-0.0625 -0.777343,-0.128906 -1.484375,-0.308594 z M 12.214844,34.042969 c 0.613281,-0.582031 1.183594,-1.117188 2.074218,-1.941407 0.46875,1.324219 1.054688,2.949219 1.574219,4.457032 -0.527343,0.566406 -1.382812,1.425781 -1.898437,1.976562 -0.371094,-0.84375 -1.1875,-3.179687 -1.75,-4.492187 z M 1.90625,28.113281 c 0.453125,-0.796875 1.375,-1.453125 2.523438,-1.808593 2.476562,-0.761719 5.71875,-0.773438 8.832031,-0.558594 2.570312,0.179687 3.078125,0.230468 4.265625,0.410156 0.285156,0.8125 0.492187,1.523438 0.746094,2.292969 C 15.6875,27.878906 9.730469,26.824219 7.566406,26.882812 5.011719,26.953125 2.257812,27.300781 2.25,30.625 2.242188,33.558594 4.046875,36.902344 4.890625,38.941406 2.203125,34.054688 0.742188,30.679688 1.90625,28.113281 Z m 28.445312,7.535157 c 0,0 0.558594,-0.574219 1.382813,-1.457032 2.839844,-3.019531 4.917969,-5.632812 5.820313,-7.316406 0.644531,-1.203125 0.894531,-2.160156 0.804687,-3.089844 -0.07422,-0.800781 -0.445313,-1.101562 -1.023437,-1.78125 C 35.734375,20.125 28.414062,19.59375 27.703125,19.375 c 3.113281,0.195312 6.332031,0.359375 9.238281,1.527344 1.785156,0.796875 2.570313,1.847656 2.472656,3.636718 -0.128906,2.304688 -1.835937,5.703126 -5.980468,10.890626 -0.296875,0.375 -0.578125,0.738281 -0.578125,0.738281 z m 7.058594,-1.53125 c 1.386719,-2.078126 2.585938,-4.234376 3.359375,-6.589844 0.203125,-0.679688 0.292969,-1.21875 0.359375,-2.117188 C 41.089844,24.613281 40.949219,23.792969 40.585938,23 c 0.804687,1.042969 0.960937,2.128906 0.996093,3.3125 0.0039,0.992188 -0.207031,2.503906 -0.683593,3.863281 -0.398438,1.132813 -1.511719,3.421875 -2.074219,4.3125 -0.4375,-0.117187 -0.734375,-0.167969 -1.414063,-0.371093 z M 24.234375,29.597656 c -0.06641,-0.25 -0.570313,-1.695312 -0.863281,-2.578125 1.621094,0.203125 3.351562,0.554688 4.953125,0.820313 0.261719,0.902344 0.558593,1.859375 0.746093,2.691406 -1.046874,-0.210938 -3.199218,-0.628906 -4.835937,-0.933594 z M 19.566406,28.6875 c -0.175781,-0.496094 -0.527344,-1.582031 -0.796875,-2.40625 0.582031,0.05078 2.859375,0.453125 3.402344,0.535156 0.08203,0.269532 0.605469,1.898438 0.789063,2.554688 -0.9375,-0.203125 -2.355469,-0.492188 -3.394532,-0.683594 z M 7.382812,22.695312 c 2.597657,-0.605468 4.382813,-0.617187 5.636719,-0.613281 0.132813,0.480469 0.296875,0.960938 0.359375,1.339844 -3.058594,-0.08594 -9.320312,-0.28125 -11.734375,2.933594 1.015625,-2.195313 3.492188,-3.085938 5.738281,-3.660157 z m 7.164063,0.792969 c -0.101563,-0.410156 -0.269531,-0.992187 -0.417969,-1.453125 2.023438,-0.0078 5.824219,0.167969 8.140625,0.375 0.175781,0.636719 0.457031,1.5625 0.625,2.234375 -0.933593,-0.246093 -4.332031,-0.84375 -8.347656,-1.15625 z M 6.761719,21.167969 c 1.933593,-1.367188 5.179687,-2.15625 10.429687,-2.703125 0.160156,0.507812 0.316406,1.105468 0.394532,1.390625 -3.546876,0.230469 -6.195313,0.285156 -10.824219,1.3125 z M 18.34375,18.394531 c 0.414062,-0.08594 3.996094,-0.335937 4.609375,-0.332031 0.214844,0.613281 0.378906,1.25 0.542969,1.804688 -1.195313,-0.109376 -3.46875,-0.05859 -4.660156,0.0078 -0.207032,-0.597656 -0.34375,-1.023438 -0.492188,-1.480469 z m 0,0"
       fill-opacity="1"
       fill-rule="nonzero"
       id="path1"
       style="fill:#ffffff;fill-opacity:1" />
    <g
       fill="#216eb9"
       fill-opacity="1"
       id="g4"
       style="fill:#ffffff;fill-opacity:1">
      <g
         transform="translate(49.573308,46.874995)"
         id="g3"
         style="fill:#ffffff;fill-opacity:1">
        <g
           id="g2"
           style="fill:#ffffff;fill-opacity:1">
          <path
             d="m 0.328125,-21.234375 c 0,-0.90625 0.070313,-1.488281 0.21875,-1.75 0.15625,-0.257813 0.394531,-0.390625 0.71875,-0.390625 H 24.125 c 0.320312,0 0.554688,0.132812 0.703125,0.390625 0.144531,0.261719 0.21875,0.84375 0.21875,1.75 0,0.917969 -0.07422,1.515625 -0.21875,1.796875 -0.148437,0.273438 -0.382813,0.40625 -0.703125,0.40625 h -8.46875 v 18.140625 c 0,0.449219 -0.171875,0.761719 -0.515625,0.9375 -0.34375,0.1875 -1.136719,0.28125 -2.375,0.28125 -1.242187,0 -2.046875,-0.09375 -2.421875,-0.28125 -0.367188,-0.175781 -0.546875,-0.488281 -0.546875,-0.9375 V -19.03125 h -8.53125 c -0.324219,0 -0.5625,-0.132812 -0.71875,-0.40625 -0.148437,-0.28125 -0.21875,-0.878906 -0.21875,-1.796875 z m 0,0"
             id="path2"
             style="fill:#ffffff;fill-opacity:1" />
        </g>
      </g>
    </g>
    <g
       fill="#216eb9"
       fill-opacity="1"
       id="g7"
       style="fill:#ffffff;fill-opacity:1">
      <g
         transform="translate(74.950773,46.874995)"
         id="g6"
         style="fill:#ffffff;fill-opacity:1">
        <g
           id="g5"
           style="fill:#ffffff;fill-opacity:1">
          <path
             d="m 11.609375,-17.03125 c 3.34375,0 5.75,0.511719 7.21875,1.53125 1.476563,1.011719 2.21875,2.640625 2.21875,4.890625 V -0.8125 c 0,0.398438 -0.121094,0.683594 -0.359375,0.859375 -0.230469,0.1875 -0.742188,0.28125 -1.53125,0.28125 -1.148438,0 -1.882812,-0.2460938 -2.203125,-0.734375 L 16.1875,-2.078125 c -0.71875,0.574219 -1.742188,1.121094 -3.0625,1.640625 -1.324219,0.5078125 -3.015625,0.765625 -5.078125,0.765625 -1.929687,0 -3.484375,-0.3945312 -4.671875,-1.1875 -1.1875,-0.789063 -1.78125,-2.050781 -1.78125,-3.78125 0,-1.832031 0.722656,-3.242187 2.171875,-4.234375 1.445313,-0.988281 3.851563,-1.484375 7.21875,-1.484375 0.863281,0 1.691406,0.03125 2.484375,0.09375 0.789062,0.0625 1.5,0.15625 2.125,0.28125 -0.15625,-2.269531 -1.828125,-3.40625 -5.015625,-3.40625 -0.96875,0 -1.953125,0.09375 -2.953125,0.28125 -1,0.179687 -2.007812,0.4375 -3.015625,0.78125 -0.054687,0.03125 -0.140625,0.04687 -0.265625,0.04687 -0.179688,0 -0.355469,-0.101562 -0.53125,-0.3125 -0.167969,-0.21875 -0.339844,-0.625 -0.515625,-1.21875 -0.148437,-0.5625 -0.21875,-0.976562 -0.21875,-1.25 0,-0.269531 0.046875,-0.453125 0.140625,-0.546875 0.101562,-0.101563 0.242188,-0.179687 0.421875,-0.234375 0.914063,-0.300781 1.742187,-0.535156 2.484375,-0.703125 0.738281,-0.175781 1.53125,-0.300781 2.375,-0.375 0.84375,-0.07031 1.878906,-0.109375 3.109375,-0.109375 z m 3.984375,11.875 V -6.9375 C 15.019531,-7.0625 14.367188,-7.160156 13.640625,-7.234375 12.910156,-7.304688 12.132812,-7.34375 11.3125,-7.34375 c -1.429688,0 -2.496094,0.167969 -3.203125,0.5 -0.710937,0.335938 -1.0625,0.898438 -1.0625,1.6875 0,0.761719 0.289063,1.292969 0.875,1.59375 0.582031,0.292969 1.359375,0.4375 2.328125,0.4375 1.40625,0 2.539062,-0.234375 3.40625,-0.703125 0.863281,-0.46875 1.507812,-0.910156 1.9375,-1.328125 z m 0,0"
             id="path4"
             style="fill:#ffffff;fill-opacity:1" />
        </g>
      </g>
    </g>
    <g
       fill="#216eb9"
       fill-opacity="1"
       id="g10"
       style="fill:#ffffff;fill-opacity:1">
      <g
         transform="translate(98.250554,46.874995)"
         id="g9"
         style="fill:#ffffff;fill-opacity:1">
        <g
           id="g8"
           style="fill:#ffffff;fill-opacity:1">
          <path
             d="m 11.90625,-17.03125 c 2.0625,0 3.9375,0.273438 5.625,0.8125 1.695312,0.542969 3.046875,1.449219 4.046875,2.71875 1,1.261719 1.5,2.980469 1.5,5.15625 0,3.042969 -0.886719,5.25 -2.65625,6.625 -1.761719,1.367188 -4.125,2.046875 -7.09375,2.046875 -1.09375,0 -2.105469,-0.074219 -3.03125,-0.21875 C 9.367188,-0.0351562 8.519531,-0.234375 7.75,-0.484375 V 7.5 C 7.75,7.894531 7.582031,8.191406 7.25,8.390625 6.914062,8.585938 6.171875,8.6875 5.015625,8.6875 3.867188,8.6875 3.125,8.585938 2.78125,8.390625 2.4375,8.191406 2.265625,7.894531 2.265625,7.5 v -20.484375 c 0,-0.84375 0.359375,-1.5 1.078125,-1.96875 0.613281,-0.394531 1.597656,-0.835937 2.953125,-1.328125 1.363281,-0.5 3.234375,-0.75 5.609375,-0.75 z M 7.75,-12.328125 v 7.796875 c 0.59375,0.25 1.265625,0.476562 2.015625,0.671875 0.757813,0.199219 1.5625,0.296875 2.40625,0.296875 1.65625,0 2.976563,-0.363281 3.96875,-1.09375 0.988281,-0.726562 1.484375,-1.957031 1.484375,-3.6875 0,-1.738281 -0.527344,-2.972656 -1.578125,-3.703125 -1.054687,-0.726563 -2.433594,-1.09375 -4.140625,-1.09375 -0.761719,0 -1.5,0.08594 -2.21875,0.25 -0.71875,0.15625 -1.367188,0.34375 -1.9375,0.5625 z m 0,0"
             id="path7"
             style="fill:#ffffff;fill-opacity:1" />
        </g>
      </g>
    </g>
    <g
       fill="#216eb9"
       fill-opacity="1"
       id="g13"
       style="fill:#ffffff;fill-opacity:1">
      <g
         transform="translate(122.886,46.874995)"
         id="g12"
         style="fill:#ffffff;fill-opacity:1">
        <g
           id="g11"
           style="fill:#ffffff;fill-opacity:1">
          <path
             d="m 11.90625,-17.03125 c 2.0625,0 3.9375,0.273438 5.625,0.8125 1.695312,0.542969 3.046875,1.449219 4.046875,2.71875 1,1.261719 1.5,2.980469 1.5,5.15625 0,3.042969 -0.886719,5.25 -2.65625,6.625 -1.761719,1.367188 -4.125,2.046875 -7.09375,2.046875 -1.09375,0 -2.105469,-0.074219 -3.03125,-0.21875 C 9.367188,-0.0351562 8.519531,-0.234375 7.75,-0.484375 V 7.5 C 7.75,7.894531 7.582031,8.191406 7.25,8.390625 6.914062,8.585938 6.171875,8.6875 5.015625,8.6875 3.867188,8.6875 3.125,8.585938 2.78125,8.390625 2.4375,8.191406 2.265625,7.894531 2.265625,7.5 v -20.484375 c 0,-0.84375 0.359375,-1.5 1.078125,-1.96875 0.613281,-0.394531 1.597656,-0.835937 2.953125,-1.328125 1.363281,-0.5 3.234375,-0.75 5.609375,-0.75 z M 7.75,-12.328125 v 7.796875 c 0.59375,0.25 1.265625,0.476562 2.015625,0.671875 0.757813,0.199219 1.5625,0.296875 2.40625,0.296875 1.65625,0 2.976563,-0.363281 3.96875,-1.09375 0.988281,-0.726562 1.484375,-1.957031 1.484375,-3.6875 0,-1.738281 -0.527344,-2.972656 -1.578125,-3.703125 -1.054687,-0.726563 -2.433594,-1.09375 -4.140625,-1.09375 -0.761719,0 -1.5,0.08594 -2.21875,0.25 -0.71875,0.15625 -1.367188,0.34375 -1.9375,0.5625 z m 0,0"
             id="path10"
             style="fill:#ffffff;fill-opacity:1" />
        </g>
      </g>
    </g>
    <g
       fill="#216eb9"
       fill-opacity="1"
       id="g16"
       style="fill:#ffffff;fill-opacity:1">
      <g
         transform="translate(147.52144,46.874995)"
         id="g15"
         style="fill:#ffffff;fill-opacity:1">
        <g
           id="g14"
           style="fill:#ffffff;fill-opacity:1">
          <path
             d="m 2.9375,-17.03125 c 1.1875,0 2,0.07422 2.4375,0.21875 0.445312,0.148438 0.757812,0.445312 0.9375,0.890625 l 5.078125,12.09375 5.15625,-12.09375 c 0.195313,-0.445313 0.5,-0.742187 0.90625,-0.890625 0.414063,-0.144531 1.21875,-0.21875 2.40625,-0.21875 1.132813,0 1.847656,0.07031 2.140625,0.203125 0.300781,0.136719 0.453125,0.351563 0.453125,0.640625 0,0.105469 -0.02734,0.230469 -0.07813,0.375 L 13.21875,4.453125 c -0.699219,1.5625 -1.59375,2.65625 -2.6875,3.28125 C 9.445312,8.367188 7.988281,8.6875 6.15625,8.6875 3.957031,8.6875 2.140625,8.238281 0.703125,7.34375 0.453125,7.175781 0.328125,6.976562 0.328125,6.75 0.328125,6.457031 0.539062,5.941406 0.96875,5.203125 1.488281,4.378906 1.894531,3.96875 2.1875,3.96875 c 0.144531,0 0.269531,0.035156 0.375,0.109375 0.414062,0.226563 0.816406,0.394531 1.203125,0.5 C 4.148438,4.691406 4.578125,4.75 5.046875,4.75 c 0.738281,0 1.34375,-0.148438 1.8125,-0.4375 0.476563,-0.28125 0.875,-0.804688 1.1875,-1.5625 l 1.3125,-2.78125 H 9.015625 C 8.566406,-0.03125 8.15625,-0.160156 7.78125,-0.421875 7.414062,-0.679688 7.132812,-1.007812 6.9375,-1.40625 L 0.453125,-15.8125 c -0.03125,-0.05078 -0.0625,-0.113281 -0.09375,-0.1875 -0.023437,-0.07031 -0.03125,-0.132812 -0.03125,-0.1875 0,-0.289062 0.144531,-0.503906 0.4375,-0.640625 0.300781,-0.132813 1.023437,-0.203125 2.171875,-0.203125 z m 0,0"
             id="path13"
             style="fill:#ffffff;fill-opacity:1" />
        </g>
      </g>
    </g>
    <g
       fill="#216eb9"
       fill-opacity="1"
       id="g19"
       style="fill:#ffffff;fill-opacity:1">
      <g
         transform="translate(170.30179,46.874995)"
         id="g18"
         style="fill:#ffffff;fill-opacity:1">
        <g
           id="g17"
           style="fill:#ffffff;fill-opacity:1">
          <path
             d="m 7.453125,-11.6875 c 0,2.398438 0.722656,4.277344 2.171875,5.640625 1.445312,1.355469 3.445312,2.03125 6,2.03125 2.570312,0 4.582031,-0.644531 6.03125,-1.9375 1.445312,-1.300781 2.171875,-3.210937 2.171875,-5.734375 0,-2.519531 -0.726563,-4.4375 -2.171875,-5.75 -1.449219,-1.3125 -3.460938,-1.96875 -6.03125,-1.96875 -2.554688,0 -4.554688,0.65625 -6,1.96875 -1.449219,1.3125 -2.171875,3.230469 -2.171875,5.75 z m -5.859375,0 c 0,-4.007812 1.226562,-7.015625 3.6875,-9.015625 2.46875,-2.007813 5.925781,-3.015625 10.375,-3.015625 4.457031,0 7.914062,1.007812 10.375,3.015625 2.457031,2 3.6875,5.007813 3.6875,9.015625 0,4.011719 -1.230469,7.015625 -3.6875,9.015625 -2.460938,2 -5.917969,3 -10.375,3 -4.449219,0 -7.90625,-1 -10.375,-3 -2.460938,-2 -3.6875,-5.003906 -3.6875,-9.015625 z m 0,0"
             id="path16"
             style="fill:#ffffff;fill-opacity:1" />
        </g>
      </g>
    </g>
    <g
       fill="#216eb9"
       fill-opacity="1"
       id="g22"
       style="fill:#ffffff;fill-opacity:1">
      <g
         transform="translate(201.57842,46.874995)"
         id="g21"
         style="fill:#ffffff;fill-opacity:1">
        <g
           id="g20"
           style="fill:#ffffff;fill-opacity:1">
          <path
             d="m 2.296875,-0.8125 v -12.171875 c 0,-0.84375 0.347656,-1.5 1.046875,-1.96875 0.613281,-0.394531 1.628906,-0.835937 3.046875,-1.328125 1.425781,-0.5 3.265625,-0.75 5.515625,-0.75 3.164062,0 5.597656,0.539062 7.296875,1.609375 1.695313,1.074219 2.546875,2.761719 2.546875,5.0625 V -0.8125 c 0,0.398438 -0.164062,0.683594 -0.484375,0.859375 -0.324219,0.1875 -1.070313,0.28125 -2.234375,0.28125 -1.136719,0 -1.875,-0.09375 -2.21875,-0.28125 -0.34375,-0.175781 -0.515625,-0.460937 -0.515625,-0.859375 v -8.390625 c 0,-1.3125 -0.355469,-2.296875 -1.0625,-2.953125 -0.710937,-0.65625 -1.820313,-0.984375 -3.328125,-0.984375 -0.761719,0 -1.5,0.08984 -2.21875,0.265625 -0.71875,0.167969 -1.367188,0.367188 -1.9375,0.59375 V -0.8125 c 0,0.398438 -0.164062,0.683594 -0.484375,0.859375 -0.3125,0.1875 -1.054687,0.28125 -2.21875,0.28125 -1.136719,0 -1.882813,-0.09375 -2.234375,-0.28125 C 2.46875,-0.128906 2.296875,-0.414062 2.296875,-0.8125 Z m 0,0"
             id="path19"
             style="fill:#ffffff;fill-opacity:1" />
        </g>
      </g>
    </g>
    <g
       fill="#216eb9"
       fill-opacity="1"
       id="g25"
       style="fill:#ffffff;fill-opacity:1">
      <g
         transform="translate(225.62023,46.874995)"
         id="g24"
         style="fill:#ffffff;fill-opacity:1">
        <g
           id="g23"
           style="fill:#ffffff;fill-opacity:1">
          <path
             d="m 11.578125,-17.03125 c 2.300781,0 4.140625,0.328125 5.515625,0.984375 1.375,0.65625 2.367188,1.5625 2.984375,2.71875 0.613281,1.148437 0.921875,2.460937 0.921875,3.9375 0,0.867187 -0.226562,1.542969 -0.671875,2.03125 -0.4375,0.480469 -1.125,0.71875 -2.0625,0.71875 H 7.234375 c 0.320313,1.15625 0.992187,2.011719 2.015625,2.5625 1.03125,0.542969 2.4375,0.8125 4.21875,0.8125 1.039062,0 1.953125,-0.09375 2.734375,-0.28125 0.78125,-0.1875 1.675781,-0.441406 2.6875,-0.765625 0.07031,-0.019531 0.160156,-0.03125 0.265625,-0.03125 0.21875,0 0.40625,0.121094 0.5625,0.359375 0.164062,0.230469 0.332031,0.640625 0.5,1.234375 0.15625,0.523438 0.234375,0.917969 0.234375,1.1875 0,0.429688 -0.179687,0.6875 -0.53125,0.78125 -0.90625,0.273438 -1.730469,0.496094 -2.46875,0.671875 -0.730469,0.1757812 -1.5,0.289063 -2.3125,0.34375 -0.8125,0.0625 -1.828125,0.09375 -3.046875,0.09375 C 8.582031,0.328125 5.953125,-0.40625 4.203125,-1.875 2.460938,-3.34375 1.59375,-5.5 1.59375,-8.34375 c 0,-2.851562 0.820312,-5.015625 2.46875,-6.484375 1.644531,-1.46875 4.148438,-2.203125 7.515625,-2.203125 z m 4.375,7.15625 c -0.167969,-1.257812 -0.601563,-2.160156 -1.296875,-2.703125 -0.6875,-0.539063 -1.6875,-0.8125 -3,-0.8125 -2.605469,0 -4.105469,1.171875 -4.5,3.515625 z m 0,0"
             id="path22"
             style="fill:#ffffff;fill-opacity:1" />
        </g>
      </g>
    </g>
  </g>
</svg>
